PathFileType	4	(X/Y/Z)	./resultDataOpenSim/trcMotMarkerGrf/sub06/qtm-05-05.trc
DataRate	CameraRate	NumFrames	NumMarkers	Units	OrigDataRate	OrigDataStartFrame	OrigNumFrames
250.000000	250.000000	8	24	m	250.000000	442	505
Frame#	Time	L.Toe.Tip			R.Toe.Tip			L.Ankle.Lat			R.Ankle.Lat			L.Ankle.Med			R.Ankle.Med			L.Heel			R.Heel			L.Knee.Lat			R.Knee.Lat			L.Knee.Med			R.Knee.Med			L.Thigh.Upper			R.Thigh.Upper			L.ASIS			R.ASIS			V.Sacral			L.Acromium			R.Acromium			C7			L.Elbow			R.Elbow			L.Wrist.Lat			R.Wrist.Lat
		X1	Y1	Z1	X2	Y2	Z2	X3	Y3	Z3	X4	Y4	Z4	X5	Y5	Z5	X6	Y6	Z6	X7	Y7	Z7	X8	Y8	Z8	X9	Y9	Z9	X10	Y10	Z10	X11	Y11	Z11	X12	Y12	Z12	X13	Y13	Z13	X14	Y14	Z14	X15	Y15	Z15	X16	Y16	Z16	X17	Y17	Z17	X18	Y18	Z18	X19	Y19	Z19	X20	Y20	Z20	X21	Y21	Z21	X22	Y22	Z22	X23	Y23	Z23	X24	Y24	Z24

442	1.764	1.6714359	0.033227208	-0.011075364	1.0531958	0.081980602	0.16303504	1.5481898	0.065764646	-0.035060074	1.0496082	0.21970361	0.19355202	1.5500916	0.080219412	0.051788986	1.0895685	0.20692866	0.11379381	1.4712542	0.040107277	0.0078619342	1.0263094	0.26351915	0.12885469	1.6320222	0.4311532	-0.052254587	1.3984548	0.3866937	0.22912081	1.6054938	0.42741882	0.065758474	1.3997651	0.36136587	0.09597114	1.4839648	0.80117838	-0.11541379	1.4206765	0.74552389	0.21987696	1.5413507	0.83652618	-0.0574622	1.509964	0.81034415	0.18477221	1.3364316	0.90075172	0.056454135	1.4666894	1.2975076	-0.13795287	1.4582521	1.3063807	0.22720374	1.3795749	1.3394273	0.040810744	1.3636292	0.99971926	-0.17204648	1.4090019	0.98646619	0.30997751	1.44046	0.77721402	-0.23741401	1.6323651	0.87679781	0.2883194
443	1.768	1.6714664	0.033204902	-0.011109822	1.0690557	0.083749027	0.16283657	1.5482372	0.065745374	-0.035095551	1.0625667	0.22152419	0.19293626	1.5502379	0.080328121	0.05173281	1.1024248	0.20919677	0.11322358	1.4712608	0.040233853	0.0078743374	1.0378755	0.26460671	0.12855753	1.6339375	0.43085031	-0.052469971	1.410833	0.38794319	0.22943681	1.6076283	0.42722712	0.065556819	1.4120104	0.36319864	0.095841887	1.4894566	0.80220379	-0.11601947	1.4256084	0.74738035	0.21959714	1.5472287	0.8378082	-0.058036385	1.516025	0.8121841	0.18449984	1.3426534	0.90251151	0.055782394	1.473005	1.2992656	-0.13807813	1.4637549	1.3080416	0.22715056	1.3856509	1.3409979	0.040515424	1.3719416	1.0004177	-0.17253991	1.4131679	0.98807517	0.30869287	1.4521391	0.77875218	-0.23697785	1.6349224	0.87552125	0.28924234
444	1.772	1.6714926	0.033183568	-0.011139095	1.0850065	0.08527057	0.16278036	1.5482711	0.06570915	-0.035086741	1.0756913	0.22309871	0.19229956	1.5503747	0.080428711	0.0516845	1.1154941	0.21112447	0.11269604	1.4712682	0.040374154	0.0079178913	1.0497948	0.26539508	0.12802115	1.6357753	0.43058034	-0.052618279	1.4231527	0.38932732	0.22972425	1.6096135	0.42707818	0.065420175	1.4243	0.3650583	0.095730673	1.4948419	0.80327327	-0.11656308	1.4306035	0.74931381	0.21930054	1.5530714	0.83911417	-0.058620113	1.5221508	0.8140362	0.18421396	1.3492491	0.90423849	0.055076402	1.4792876	1.3010722	-0.13818193	1.4692476	1.3097035	0.22709368	1.3916886	1.3425782	0.040233084	1.380276	1.0011679	-0.173028	1.4173859	0.98973428	0.30746657	1.463871	0.78039082	-0.2364986	1.6373934	0.87430061	0.29020093
445	1.776	1.6715178	0.033166076	-0.011160149	1.1009718	0.08654194	0.16288438	1.5482942	0.065654499	-0.035025811	1.0889549	0.22438145	0.19164618	1.5505013	0.080523346	0.051645352	1.128798	0.21267186	0.11220439	1.4712871	0.040534391	0.0079369064	1.0622268	0.2658937	0.12707914	1.6375535	0.4303475	-0.052692169	1.4353901	0.3908702	0.22998462	1.611428	0.42696142	0.065343364	1.4366913	0.36690562	0.095683198	1.5000887	0.80439441	-0.11702128	1.4356578	0.75131826	0.21899454	1.5588901	0.84044343	-0.059212965	1.528283	0.81590312	0.1839219	1.3559715	0.90595989	0.054362213	1.4855392	1.30294	-0.13826599	1.4747411	1.3113711	0.22703341	1.3977059	1.344191	0.039960407	1.3886187	1.0019679	-0.17353423	1.4215151	0.99144194	0.30630213	1.4756382	0.78213178	-0.23597365	1.6397659	0.87313522	0.29120067
446	1.78	1.6715474	0.033153293	-0.011171576	1.116973	0.087590778	0.16314474	1.5483157	0.065615326	-0.034959577	1.1023404	0.22534723	0.19098788	1.550621	0.080618564	0.051617789	1.1423348	0.21383879	0.11173375	1.471319	0.04071765	0.0079104573	1.0750151	0.26610801	0.12595778	1.639274	0.43015095	-0.05269639	1.4475635	0.39258695	0.23020792	1.6130539	0.4268683	0.065321387	1.4492037	0.36873933	0.095703639	1.5052982	0.80557222	-0.11742676	1.4407538	0.75338808	0.21869029	1.5646824	0.84179117	-0.059804119	1.5344019	0.81779158	0.18361898	1.3625795	0.90768634	0.053691578	1.491769	1.3048864	-0.13833917	1.4802458	1.313049	0.22697032	1.4037153	1.3458472	0.039697066	1.3969691	1.0028119	-0.17405733	1.4254293	0.99317891	0.30516637	1.487431	0.78398033	-0.23540141	1.6420351	0.87202322	0.29224332
447	1.784	1.6715839	0.03314396	-0.011174052	1.1330397	0.088448296	0.16355522	1.5483466	0.065642515	-0.034958023	1.1158299	0.2259966	0.19033355	1.5507346	0.08072676	0.051603611	1.1560658	0.21465512	0.11125742	1.471355	0.040924402	0.0078576572	1.0878655	0.26603945	0.12503588	1.6409292	0.4299844	-0.052642133	1.4597473	0.39446534	0.23036568	1.614477	0.42679068	0.065350809	1.4617938	0.370602	0.095772581	1.5106069	0.80680137	-0.11781773	1.4458856	0.75551704	0.21839511	1.5704207	0.84315122	-0.060373508	1.540508	0.81970214	0.18330014	1.3688993	0.90941291	0.053123494	1.4979925	1.3069248	-0.1384135	1.4857747	1.3147336	0.22690388	1.4097215	1.347535	0.039449833	1.4053302	1.0036944	-0.17457711	1.4290364	0.99491214	0.30401999	1.4992549	0.78593818	-0.23478397	1.6442141	0.8709626	0.29332906
448	1.788	1.6716245	0.033135452	-0.011169345	1.1491843	0.089134871	0.16410543	1.5483934	0.065754004	-0.035041075	1.1294019	0.22635082	0.18968433	1.5508384	0.080864094	0.051600495	1.1699442	0.21516911	0.11074893	1.4713845	0.041144148	0.0078011851	1.1007075	0.26568978	0.12437308	1.6425144	0.42983932	-0.05253624	1.4720141	0.39647986	0.23043215	1.6157092	0.42672666	0.065428381	1.4744088	0.37254329	0.095842125	1.5160348	0.80804944	-0.1181926	1.4510588	0.75769841	0.21811286	1.5760815	0.8445229	-0.060905957	1.546607	0.82162785	0.18296399	1.3749133	0.91113291	0.052684103	1.5042235	1.3090441	-0.13849277	1.4913427	1.3164109	0.22683006	1.4157273	1.349236	0.039227643	1.4137022	1.0046153	-0.17508213	1.4324157	0.99662498	0.30285265	1.5111218	0.7880015	-0.23412551	1.646319	0.86995419	0.29445848
449	1.792	1.671664	0.033124913	-0.011159549	1.1654158	0.089659818	0.16477887	1.5484518	0.065914383	-0.03515752	1.1430153	0.22643281	0.18903719	1.5509266	0.081038195	0.05160247	1.1839585	0.21543767	0.11022107	1.4713996	0.041352776	0.0077364515	1.1136732	0.26506166	0.12374545	1.644026	0.42970813	-0.052385772	1.4843354	0.39861529	0.23041745	1.6167795	0.42668371	0.065544919	1.4870912	0.37457715	0.095853465	1.521516	0.80927399	-0.11853336	1.4562833	0.75992534	0.21784607	1.581712	0.8459092	-0.06141799	1.5526997	0.82356261	0.18261157	1.3807732	0.91284055	0.052332064	1.510461	1.3111935	-0.13856172	1.4969603	1.3180638	0.22674363	1.4217369	1.3509417	0.039036589	1.4220842	1.0055802	-0.17558737	1.435937	0.99833871	0.30170297	1.5230263	0.79016286	-0.23342408	1.6483555	0.86899937	0.2956297
